<svg width="38" height="38" viewBox="0 0 38 38" fill="none" xmlns="http://www.w3.org/2000/svg">
<circle cx="19" cy="19" r="19" fill="#FEF1F2"/>
<path d="M19 19.6C19.17 19.6 19.3126 19.5424 19.4278 19.4272C19.5426 19.3124 19.6 19.17 19.6 19V16.585C19.6 16.415 19.5426 16.275 19.4278 16.165C19.3126 16.055 19.17 16 19 16C18.83 16 18.6876 16.0574 18.5728 16.1722C18.4576 16.2874 18.4 16.43 18.4 16.6V19.015C18.4 19.185 18.4576 19.325 18.5728 19.435C18.6876 19.545 18.83 19.6 19 19.6ZM19 22C19.17 22 19.3126 21.9424 19.4278 21.8272C19.5426 21.7124 19.6 21.57 19.6 21.4C19.6 21.23 19.5426 21.0874 19.4278 20.9722C19.3126 20.8574 19.17 20.8 19 20.8C18.83 20.8 18.6876 20.8574 18.5728 20.9722C18.4576 21.0874 18.4 21.23 18.4 21.4C18.4 21.57 18.4576 21.7124 18.5728 21.8272C18.6876 21.9424 18.83 22 19 22ZM19 25C18.17 25 17.39 24.8424 16.66 24.5272C15.93 24.2124 15.295 23.785 14.755 23.245C14.215 22.705 13.7876 22.07 13.4728 21.34C13.1576 20.61 13 19.83 13 19C13 18.17 13.1576 17.39 13.4728 16.66C13.7876 15.93 14.215 15.295 14.755 14.755C15.295 14.215 15.93 13.7874 16.66 13.4722C17.39 13.1574 18.17 13 19 13C19.83 13 20.61 13.1574 21.34 13.4722C22.07 13.7874 22.705 14.215 23.245 14.755C23.785 15.295 24.2124 15.93 24.5272 16.66C24.8424 17.39 25 18.17 25 19C25 19.83 24.8424 20.61 24.5272 21.34C24.2124 22.07 23.785 22.705 23.245 23.245C22.705 23.785 22.07 24.2124 21.34 24.5272C20.61 24.8424 19.83 25 19 25ZM19 23.8C20.33 23.8 21.4626 23.3326 22.3978 22.3978C23.3326 21.4626 23.8 20.33 23.8 19C23.8 17.67 23.3326 16.5374 22.3978 15.6022C21.4626 14.6674 20.33 14.2 19 14.2C17.67 14.2 16.5376 14.6674 15.6028 15.6022C14.6676 16.5374 14.2 17.67 14.2 19C14.2 20.33 14.6676 21.4626 15.6028 22.3978C16.5376 23.3326 17.67 23.8 19 23.8Z" fill="#E02D3C"/>
</svg>
