<svg width="14" height="10" viewBox="0 0 14 10" fill="none" xmlns="http://www.w3.org/2000/svg">
<path d="M13.2036 4.75C11.9411 1.81875 9.56614 0 7.00364 0C4.44114 0 2.06614 1.81875 0.803643 4.75C0.769228 4.82885 0.751465 4.91396 0.751465 5C0.751465 5.08604 0.769228 5.17115 0.803643 5.25C2.06614 8.18125 4.44114 10 7.00364 10C9.56614 10 11.9411 8.18125 13.2036 5.25C13.2381 5.17115 13.2558 5.08604 13.2558 5C13.2558 4.91396 13.2381 4.82885 13.2036 4.75ZM7.00364 8.75C5.02239 8.75 3.14739 7.31875 2.06614 5C3.14739 2.68125 5.02239 1.25 7.00364 1.25C8.98489 1.25 10.8599 2.68125 11.9411 5C10.8599 7.31875 8.98489 8.75 7.00364 8.75ZM7.00364 2.5C6.50919 2.5 6.02584 2.64662 5.61472 2.92133C5.20359 3.19603 4.88316 3.58648 4.69394 4.04329C4.50472 4.50011 4.45522 5.00277 4.55168 5.48773C4.64814 5.97268 4.88624 6.41814 5.23588 6.76777C5.58551 7.1174 6.03096 7.3555 6.51592 7.45196C7.00087 7.54843 7.50354 7.49892 7.96035 7.3097C8.41717 7.12048 8.80761 6.80005 9.08232 6.38893C9.35702 5.9778 9.50364 5.49445 9.50364 5C9.50364 4.33696 9.24025 3.70107 8.77141 3.23223C8.30257 2.76339 7.66668 2.5 7.00364 2.5ZM7.00364 6.25C6.75642 6.25 6.51474 6.17669 6.30918 6.03934C6.10362 5.90199 5.9434 5.70676 5.84879 5.47835C5.75418 5.24995 5.72943 4.99861 5.77766 4.75614C5.82589 4.51366 5.94494 4.29093 6.11976 4.11612C6.29458 3.9413 6.5173 3.82225 6.75978 3.77402C7.00226 3.72579 7.25359 3.75054 7.482 3.84515C7.7104 3.93976 7.90563 4.09998 8.04298 4.30554C8.18033 4.5111 8.25364 4.75277 8.25364 5C8.25364 5.33152 8.12195 5.64946 7.88753 5.88388C7.65311 6.1183 7.33516 6.25 7.00364 6.25Z" fill="#35485D"/>
</svg>
