<svg width="32" height="32" viewBox="0 0 32 32" fill="none" xmlns="http://www.w3.org/2000/svg">
<path d="M15.16 17.08L13.855 15.775C13.745 15.665 13.6076 15.6126 13.4428 15.6178C13.2776 15.6226 13.14 15.68 13.03 15.79C12.92 15.9 12.865 16.04 12.865 16.21C12.865 16.38 12.92 16.52 13.03 16.63L14.74 18.34C14.85 18.45 14.99 18.505 15.16 18.505C15.33 18.505 15.47 18.45 15.58 18.34L18.985 14.935C19.095 14.825 19.1476 14.6874 19.1428 14.5222C19.1376 14.3574 19.08 14.22 18.97 14.11C18.86 14 18.72 13.945 18.55 13.945C18.38 13.945 18.24 14 18.13 14.11L15.16 17.08ZM16 22C15.17 22 14.39 21.8424 13.66 21.5272C12.93 21.2124 12.295 20.785 11.755 20.245C11.215 19.705 10.7876 19.07 10.4728 18.34C10.1576 17.61 10 16.83 10 16C10 15.17 10.1576 14.39 10.4728 13.66C10.7876 12.93 11.215 12.295 11.755 11.755C12.295 11.215 12.93 10.7874 13.66 10.4722C14.39 10.1574 15.17 10 16 10C16.83 10 17.61 10.1574 18.34 10.4722C19.07 10.7874 19.705 11.215 20.245 11.755C20.785 12.295 21.2124 12.93 21.5272 13.66C21.8424 14.39 22 15.17 22 16C22 16.83 21.8424 17.61 21.5272 18.34C21.2124 19.07 20.785 19.705 20.245 20.245C19.705 20.785 19.07 21.2124 18.34 21.5272C17.61 21.8424 16.83 22 16 22ZM16 20.8C17.33 20.8 18.4626 20.3326 19.3978 19.3978C20.3326 18.4626 20.8 17.33 20.8 16C20.8 14.67 20.3326 13.5374 19.3978 12.6022C18.4626 11.6674 17.33 11.2 16 11.2C14.67 11.2 13.5376 11.6674 12.6028 12.6022C11.6676 13.5374 11.2 14.67 11.2 16C11.2 17.33 11.6676 18.4626 12.6028 19.3978C13.5376 20.3326 14.67 20.8 16 20.8Z" fill="#08875D"/>
</svg>
